<?xml version="1.0" encoding="utf-8"?>
<!-- Generator: Adobe Illustrator 27.4.1, SVG Export Plug-In . SVG Version: 6.00 Build 0)  -->
<svg version="1.1" id="Artwork_1_" xmlns="http://www.w3.org/2000/svg" xmlns:xlink="http://www.w3.org/1999/xlink" x="0px" y="0px"
	 viewBox="0 0 6018.2 1985" style="enable-background:new 0 0 6018.2 1985;" xml:space="preserve">
<style type="text/css">
	.st0{fill:#2D2D2D;}
	.st1{fill:#7537F8;}
</style>
<g id="Emblem">
	<g id="Polyfen">
		<path class="st0" d="M2952.2,834.6c0,155.5-99.6,265-268.3,265h-169.7v273.8h-150V570.7h150H2685
			C2851.5,570.7,2952.2,672.5,2952.2,834.6z M2794.5,831.3c0-65.7-40.5-128.1-136.9-128.1h-143.4v266.1h142.3
			C2754,969.3,2794.5,904.7,2794.5,831.3z"/>
		<path class="st0" d="M3267.2,814.9c170.8,0,283.6,118.3,283.6,285.8c0,168.6-112.8,285.8-283.6,285.8
			c-170.8,0-284.7-117.2-284.7-285.8C2982.5,933.1,3096.4,814.9,3267.2,814.9z M3267.2,1258.4c84.3,0,140.2-64.6,140.2-157.7
			S3351.6,943,3267.2,943c-85.4,0-140.2,64.6-140.2,157.7S3181.8,1258.4,3267.2,1258.4z"/>
		<path class="st0" d="M3639.4,555.4h143.4v818h-143.4V555.4z"/>
		<path class="st0" d="M4431.6,830.2L4171,1501.4c-66.8,173-207,152.2-311,113.9l38.3-129.2c59.1,36.1,129.2,39.4,155.5-35l17.5-46
			l-232.1-574.9h151.1l147.8,392l144.5-392H4431.6z"/>
		<path class="st0" d="M4689.6,770v60.2h129.2v118.3h-129.2v424.9h-142.3l-1.1-424.9h-76.6V830.2h76.6V770
			c0-150,82.1-214.6,205.9-214.6c19.7,0,41.6,2.2,67.9,6.6v127C4712.6,668.1,4689.6,710.9,4689.6,770z"/>
		<path class="st0" d="M5403.3,1152.1h-409.5c8.8,81,72.3,113.9,138,113.9s107.3-30.7,131.4-77.7l118.3,47.1
			c-39.4,95.3-135.8,152.2-249.7,152.2c-161,0-272.7-113.9-272.7-285.8c0-170.8,109.5-288,274.8-288c162.1,0,269.4,113.9,269.4,288
			V1152.1z M4996,1053.6h261.7c-5.5-82.1-55.8-121.5-125.9-121.5C5057.3,932,5009.1,974.7,4996,1053.6z"/>
		<path class="st0" d="M6009.7,1039.4v334h-142.4V1070c0-111.7-72.3-125.9-109.5-125.9c-50.4,0-124.8,25.2-124.8,129.2v300h-142.4
			V830.2h134.7l4.4,53.7c30.7-41.6,90.9-70.1,158.8-70.1C5929.8,813.8,6009.7,897,6009.7,1039.4z"/>
	</g>
	<g id="Octogon">
		<path class="st1" d="M1867.8,697.5c-10-3.7-20-7.7-29.9-11.7c-244.1-100.2-439.2-295.3-539.4-539.4c-3.9-9.5-7.7-19.1-11.3-28.8
			h-0.1c-33.5-66.2-153-115.2-295.3-115.2S730,51.3,696.5,117.5h-0.2c-3.6,9.7-7.4,19.3-11.3,28.8
			c73.2,197.6,177.4,380.1,306.8,541.6c8.4,10.5,17,21,25.6,31.3c8.6,10.3,17.4,20.6,26.2,30.8c0,0,0.1,0.1,0.1,0.1
			c5.2,5.9,10.4,11.8,15.6,17.7c15.7,17.6,31.7,34.9,48,51.9c0,0,0,0,0,0c40.5,42.2,82.8,82.5,126.8,120.9c0,0,0,0,0,0
			c20.3,17.7,41.1,35,62.1,51.9c-69.4,55.6-135,115.9-196.1,180.3c-22.5,18.8-48.7,35.4-56.5,29.7l13.8,16.7l0,0l12.3,15.3
			c118.4,147.7,215.1,310,288.3,483.2c108.9-187.3,277.5-335.5,479.8-418.5c9.9-4.1,19.8-8,29.9-11.7
			c65.9-33.8,114.7-153.1,114.7-295C1982.5,850.6,1933.7,731.3,1867.8,697.5z"/>
		<path class="st1" d="M966.1,1265.8c-8.6-10.3-17.4-20.6-26.2-30.8c0,0-0.1-0.1-0.1-0.1c-5.2-5.9-10.4-11.8-15.6-17.7
			c-15.7-17.6-31.7-34.9-48-51.9c0,0,0,0,0,0c-40.5-42.2-82.8-82.5-126.8-120.9c0,0,0,0,0,0c-20.3-17.7-41.1-35-62.1-51.9
			c68.6-55,133.5-114.5,194-178.1c22.6-19.5,49.8-36.9,57.9-31L926,765.8h0l-12.3-15.3c-118.4-147.7-215.1-310-288.3-483.2
			C516.5,454.5,347.9,602.7,145.6,685.8c-9.9,4.1-19.8,8-29.9,11.7C49.8,731.3,1.1,850.6,1.1,992.5c0,141.9,48.7,261.2,114.7,295
			c10,3.7,20,7.7,29.9,11.7c244.1,100.2,439.2,295.3,539.4,539.4c3.9,9.5,7.7,19.1,11.3,28.8h0.1c33.5,66.2,153,115.2,295.3,115.2
			s261.8-49,295.3-115.2h0.2c3.6-9.7,7.4-19.3,11.3-28.8c-73.2-197.6-177.4-380.1-306.8-541.6
			C983.3,1286.5,974.8,1276.1,966.1,1265.8z"/>
	</g>
</g>
</svg>
